<?xml version="1.0" encoding="UTF-8"?>
<svg width="108px" height="15px" viewBox="0 0 108 15" version="1.1" xmlns="http://www.w3.org/2000/svg" xmlns:xlink="http://www.w3.org/1999/xlink">
    <!-- Generator: Sketch 51.1 (57501) - http://www.bohemiancoding.com/sketch -->
    <title>LOGO</title>
    <desc>Created with Sketch.</desc>
    <defs></defs>
    <g id="Phase-1" stroke="none" stroke-width="1" fill="none" fill-rule="evenodd">
        <g id="Step-2" transform="translate(-842.000000, -42.000000)">
            <g id="Modal" transform="translate(830.000000, 34.000000)">
                <g id="~Logo/Horizontal" transform="translate(12.000000, 8.000000)">
                    <g id="Group">
                        <g id="~Logo/Icon" fill="#CE2A2B">
                            <g id="Group" transform="translate(0.194805, 0.194805)">
                                <path d="M1.77897382,9.43972969 C1.3546942,8.37665962 1.39018527,7.3354621 1.39018527,7.3354621 C1.39018527,4.09157052 4.046208,1.45239052 7.30009395,1.45239052 C7.58305459,1.45239052 7.85762642,1.47265479 8.13639265,1.51221836 L7.47012845,2.17772274 C7.40914834,2.17579281 7.34945881,2.17450619 7.28815605,2.17450619 C4.43370597,2.17450619 2.11129931,4.48945787 2.11129931,7.3354621 C2.11129931,7.3354621 2.09774817,8.0402084 2.30520962,8.73948656 L6.83548356,8.73948656 L4.94348681,12.2969918 L9.52248032,7.6863878 L3.29573316,7.6863878 L10.2894101,0.714513742 C9.37374046,0.300221987 8.35740524,0.0695952884 7.28815605,0.0695952884 C3.26959882,0.0695952884 -9.67938312e-05,3.32892631 -9.67938312e-05,7.3354621 C-9.67938312e-05,9.95502114 1.39760613,12.254855 3.48835288,13.533434 L5.6649235,9.44165962 L1.77897382,9.43972969 Z" id="Fill-1"></path>
                                <path d="M11.109693,1.16883117 L8.92600689,5.25415552 L12.8232958,5.25415552 C12.8232958,5.25415552 13.2182695,6.16293306 13.2182695,7.35654653 C13.2182695,10.59507 10.5619099,13.2298827 7.29690256,13.2298827 C7.00682357,13.2298827 6.71706833,13.2086886 6.43119807,13.1672637 L7.09261702,12.5044662 C7.16060428,12.5073563 7.22891529,12.5092831 7.29690256,12.5092831 C10.1614326,12.5092831 12.4924245,10.1978411 12.4924245,7.35654653 C12.4924245,7.35654653 12.491777,6.60736702 12.2972039,5.95484548 L7.75112223,5.95484548 L9.64958562,2.40322724 L4.9846881,7.00620155 L11.2492288,7.00620155 L4.28571429,13.9665384 C5.20451359,14.3798234 6.22399879,14.6103896 7.29690256,14.6103896 C11.3295185,14.6103896 14.6103896,11.3564522 14.6103896,7.35654653 C14.6103896,4.74132239 13.2075857,2.44529433 11.109693,1.16883117" id="Fill-4"></path>
                            </g>
                        </g>
                        <path d="M18.7072287,12.4418347 L19.3498404,11.4886711 C19.498339,11.2544076 19.728859,11.3044151 19.8604902,11.4218825 C20.2725819,11.7729421 20.8989878,12.2914765 21.9040815,12.2914765 C22.645582,12.2914765 23.3708766,11.7058179 23.3708766,10.8697859 C23.3708766,10.1341046 22.8764327,9.64913225 21.9533605,9.03024709 C20.8659146,8.31101125 19.5806912,7.35784756 19.5806912,5.68578364 C19.5806912,4.01338411 20.7177468,2.20740741 23.3047303,2.20740741 C24.8373411,2.20740741 25.9578601,3.00987726 26.2383206,3.29448389 C26.4360982,3.49484963 26.452304,3.72911311 26.2875996,3.96304096 L25.6449879,4.88297817 C25.5130259,5.08367954 25.2990425,5.10012497 25.0681918,4.91620465 C24.5572113,4.49835648 24.0465615,4.18052338 23.2061722,4.18052338 C22.3654522,4.18052338 21.8051927,4.83263501 21.8051927,5.48474665 C21.8051927,6.15397496 22.2500268,6.4882535 23.2389147,7.15714619 C24.3266913,7.89316308 25.7766191,8.81276467 25.7766191,10.6523035 C25.7766191,12.608974 24.2770815,14.2478114 21.8382659,14.2478114 C20.2891185,14.2478114 19.2178785,13.4282249 18.7072287,12.9432525 C18.6083399,12.8432375 18.5259877,12.6925436 18.7072287,12.4418347" id="Fill-6" fill="#474C55"></path>
                        <path d="M33.6556743,10.0618506 L32.877605,6.42629664 L32.8447148,6.42629664 L31.0400725,10.0618506 L33.6556743,10.0618506 Z M26.8520531,13.6137364 L33.0762752,2.39080827 C33.1423878,2.27400736 33.2251117,2.20740741 33.3576691,2.20740741 L33.5065056,2.20740741 C33.6224519,2.20740741 33.7051758,2.29074101 33.7383982,2.39080827 L36.7842305,13.6137364 C36.8503431,13.8302699 36.7015066,14.047138 36.4699463,14.047138 L35.029754,14.047138 C34.7812502,14.047138 34.6486927,13.9638044 34.5991913,13.713469 L34.1855721,11.8627267 L30.0633331,11.8627267 L29.1032049,13.713469 C29.0204811,13.8804708 28.8384221,14.047138 28.5736394,14.047138 L27.0507232,14.047138 C26.8188307,14.047138 26.7361068,13.8302699 26.8520531,13.6137364 Z" id="Fill-8" fill="#474C55"></path>
                        <path d="M39.8515974,2.72468157 C39.8680853,2.55801436 40.0323047,2.40808081 40.1803659,2.40808081 L41.806731,2.40808081 C41.9712801,2.40808081 42.0698777,2.55801436 42.0533898,2.72468157 L41.0674142,9.74545409 C41.0344384,9.92852028 41.0344384,10.1119211 41.0344384,10.2785884 C41.0344384,11.3793282 41.593048,12.0466664 42.710597,12.0466664 C44.0576573,12.0466664 44.8137918,11.1627947 45.010987,9.76185307 L45.9966328,2.72468157 C46.0131207,2.55801436 46.1608522,2.40808081 46.3250715,2.40808081 L47.9517665,2.40808081 C48.0998277,2.40808081 48.2149131,2.55801436 48.1984252,2.72468157 L47.1962915,9.86192033 C46.8510351,12.3967345 45.1092548,14.2478114 42.5463776,14.2478114 C40.3445852,14.2478114 38.8,12.7136699 38.8,10.5289238 C38.8,10.3123903 38.8164879,10.0955222 38.8491339,9.86192033 L39.8515974,2.72468157 Z" id="Fill-10" fill="#474C55"></path>
                        <path d="M56.1232569,2.20740741 C57.6006142,2.20740741 58.7662899,2.8763001 59.5379158,3.79590169 C59.6364282,3.92981447 59.6199546,4.13018022 59.4723507,4.26409301 L58.5860681,5.13368707 C58.4051874,5.30116196 58.1916888,5.28404528 58.0440849,5.13368707 C57.6170878,4.7158389 56.9113565,4.29765511 56.0082708,4.29765511 C54.0383514,4.29765511 52.3310219,6.37145738 52.3310219,8.76275714 C52.3310219,10.5351717 53.2670549,12.0572131 54.8429246,12.0572131 C55.7951018,12.0572131 56.5334509,11.5722407 57.0919078,11.0701516 C57.3050768,10.8865669 57.4859575,10.9197934 57.6170878,11.0872683 L58.4707525,12.1740092 C58.5527913,12.2914765 58.5040293,12.5086233 58.3887137,12.6257551 C57.2395117,13.746058 55.9921267,14.2478114 54.6785175,14.2478114 C51.8384597,14.2478114 50,11.9233003 50,9.04702814 C50,5.11690602 52.7250717,2.20740741 56.1232569,2.20740741" id="Fill-12" fill="#474C55"></path>
                        <path d="M62.7391637,2.72375924 C62.7560345,2.55757757 62.9042323,2.40808081 63.0524301,2.40808081 L69.151035,2.40808081 C69.3157728,2.40808081 69.4150124,2.55757757 69.3981416,2.72375924 L69.200324,4.08724982 C69.1841149,4.25343149 69.0355863,4.40326196 68.8708485,4.40326196 L64.6511802,4.40326196 L64.2724157,7.13024311 L67.7666424,7.13024311 C67.9148403,7.13024311 68.030289,7.27973988 68.0137491,7.44592155 L67.8159314,8.82609703 C67.7831824,9.00896361 67.6346538,9.14177547 67.4864559,9.14177547 L63.9918984,9.14177547 L63.5797232,12.0516232 L67.8159314,12.0516232 C67.9806692,12.0516232 68.0630381,12.2014537 68.0468289,12.3676353 L67.8655512,13.7307922 C67.8490113,13.8969739 67.7004827,14.047138 67.5357449,14.047138 L61.43714,14.047138 C61.2724023,14.047138 61.1734935,13.8969739 61.2062425,13.7307922 L62.7391637,2.72375924 Z" id="Fill-14" fill="#474C55"></path>
                        <path d="M73.3292264,2.72375924 C73.3618513,2.55757757 73.4933395,2.40808081 73.6574525,2.40808081 L74.3636657,2.40808081 C74.5113015,2.40808081 74.6263124,2.55757757 74.6098352,2.72375924 L73.1812611,12.93292 L77.3684497,12.93292 C77.5160855,12.93292 77.6149488,13.0827504 77.598142,13.2489321 L77.5328922,13.7307922 C77.4996083,13.8969739 77.3684497,14.047138 77.2040071,14.047138 L72.0479586,14.047138 C71.8838456,14.047138 71.7853119,13.8969739 71.8017891,13.7307922 L73.3292264,2.72375924 Z" id="Fill-16" fill="#E2231A"></path>
                        <path d="M86.5507013,10.0782496 L85.2398863,4.60868698 L85.1406679,4.60868698 L82.3036209,10.0782496 L86.5507013,10.0782496 Z M79.0523869,13.6137364 L85.1736298,2.39080827 C85.2235719,2.29074101 85.3227903,2.20740741 85.4559694,2.20740741 L85.6051299,2.20740741 C85.7213287,2.20740741 85.8042326,2.29074101 85.8371945,2.39080827 L88.7904403,13.6137364 C88.8400495,13.8302699 88.6908889,14.047138 88.4748059,14.047138 L87.7782794,14.047138 C87.6287859,14.047138 87.5458819,13.9474055 87.5292345,13.8640719 L86.8660028,11.1123895 L81.6896654,11.1123895 L80.279632,13.8640719 C80.2303558,13.9474055 80.1304715,14.047138 79.9646635,14.047138 L79.2511567,14.047138 C79.0187592,14.047138 78.9358552,13.8302699 79.0523869,13.6137364 Z" id="Fill-18" fill="#E2231A"></path>
                        <path d="M95.1872933,7.62912182 C96.4075824,7.62912182 97.1987189,6.64804931 97.1987189,5.18511668 C97.1987189,4.22072908 96.7040518,3.555335 95.7478057,3.555335 L93.4726679,3.555335 L92.8956114,7.62912182 L95.1872933,7.62912182 Z M94.692957,12.9332537 C95.8301951,12.9332537 96.7864412,11.8690903 96.7864412,10.5720057 C96.7864412,9.54121213 96.0283928,8.77637601 95.0225145,8.77637601 L92.7142886,8.77637601 L92.1372321,12.9332537 L94.692957,12.9332537 Z M96.7698971,8.19440646 C97.4131298,8.54378841 98.1715091,9.24188491 98.1715091,10.4558787 C98.1715091,12.5011146 96.7374708,14.047138 94.4620021,14.047138 L91.0489644,14.047138 C90.8841857,14.047138 90.7852523,13.8973076 90.8017963,13.7311259 L92.3354298,2.72409294 C92.3678562,2.55791127 92.5002086,2.40808081 92.6649873,2.40808081 L95.9460034,2.40808081 C97.5782394,2.40808081 98.6,3.60538972 98.6,5.05197113 C98.6,6.66473421 97.7261433,7.64580673 96.7698971,8.14435174 L96.7698971,8.19440646 Z" id="Fill-20" fill="#E2231A"></path>
                        <path d="M100.141377,12.324703 L100.406635,12.040432 C100.605661,11.8400663 100.738456,11.7729421 100.937482,11.9568624 C101.434715,12.4082726 101.998511,13.1275085 103.391695,13.1275085 C104.486006,13.1275085 105.481137,12.3918272 105.481137,11.1040494 C105.481137,10.0508706 104.701674,9.43198545 103.325131,8.62917998 C101.998511,7.85960098 101.103226,7.12391971 101.103226,5.58543296 C101.103226,4.180859 101.981871,2.20740741 104.701674,2.20740741 C105.912139,2.20740741 106.790783,2.69237978 107.272041,3.06022042 C107.354913,3.12734462 107.504016,3.31126494 107.289014,3.62909804 L107.106296,3.89658799 C106.940552,4.13051584 106.774808,4.19764005 106.558808,4.04694621 C106.011652,3.66232452 105.381624,3.32771037 104.585519,3.32771037 C103.159387,3.32771037 102.363282,4.46513 102.363282,5.43507474 C102.363282,6.37145738 102.99331,6.99000692 104.038364,7.55888455 C105.630241,8.42847861 106.841039,9.24772951 106.841039,10.9704722 C106.841039,12.8264564 105.514419,14.2478114 103.20931,14.2478114 C101.550869,14.2478114 100.589353,13.2949834 100.108095,12.8096754 C99.9919412,12.6928793 99.92571,12.5421854 100.141377,12.324703" id="Fill-22" fill="#E2231A"></path>
                    </g>
                </g>
            </g>
        </g>
    </g>
</svg>