<?xml version="1.0" standalone="no"?>
<!DOCTYPE svg PUBLIC "-//W3C//DTD SVG 20010904//EN"
 "http://www.w3.org/TR/2001/REC-SVG-20010904/DTD/svg10.dtd">
<svg version="1.0" xmlns="http://www.w3.org/2000/svg"
 width="256.000000pt" height="256.000000pt" viewBox="0 0 256.000000 256.000000"
 preserveAspectRatio="xMidYMid meet">

<g transform="translate(0.000000,256.000000) scale(0.100000,-0.100000)"
fill="#000000" stroke="none">
<path d="M1175 2269 c-168 -18 -360 -94 -497 -198 -165 -125 -290 -308 -355
-518 -25 -82 -27 -100 -27 -273 0 -173 2 -191 27 -273 68 -220 214 -424 390
-546 l45 -31 45 83 c105 195 247 465 247 471 0 3 -119 6 -264 6 l-264 0 -23
83 c-31 112 -32 296 -1 409 76 280 297 501 579 579 57 16 108 22 190 23 61 1
115 -2 119 -7 4 -4 -9 -25 -30 -46 -36 -37 -41 -39 -138 -50 -186 -21 -304
-77 -433 -206 -124 -124 -183 -244 -204 -413 -10 -76 -2 -200 15 -254 5 -17
27 -18 316 -18 l310 0 -55 -102 c-30 -57 -85 -161 -122 -233 l-68 -130 302
300 301 300 -422 3 -423 2 479 479 479 479 -56 20 c-86 33 -167 51 -268 62
-52 5 -98 9 -104 8 -5 0 -46 -4 -90 -9z"/>
<path d="M1784 2098 c-9 -18 -75 -142 -145 -275 -71 -134 -129 -245 -129 -248
0 -3 118 -5 263 -5 l263 0 17 -52 c112 -362 -46 -756 -379 -944 -78 -44 -182
-79 -277 -94 -76 -13 -210 -11 -223 3 -4 4 9 25 30 46 36 37 42 39 117 45 317
28 568 236 646 536 19 76 22 253 4 317 l-12 43 -309 2 -308 3 77 145 c42 80
98 185 124 234 l48 89 -308 -304 -308 -304 424 -3 424 -2 -472 -475 c-260
-261 -470 -479 -466 -484 8 -13 142 -56 225 -72 88 -16 279 -14 365 5 380 82
672 360 770 734 72 274 7 604 -165 834 -54 71 -160 175 -233 226 l-46 33 -17
-33z"/>
</g>
</svg>
